<?xml version="1.0" encoding="utf-8"?>
<!-- Generator: Adobe Illustrator 26.0.2, SVG Export Plug-In . SVG Version: 6.00 Build 0)  -->
<svg version="1.1" id="Ebene_1" xmlns="http://www.w3.org/2000/svg" xmlns:xlink="http://www.w3.org/1999/xlink" x="0px" y="0px"
	 viewBox="0 0 100 93" style="enable-background:new 0 0 100 93;" xml:space="preserve">
<style type="text/css">
	.st0{fill-rule:evenodd;clip-rule:evenodd;}
</style>
<g id="Symbols">
	<g id="Header-mobile" transform="translate(-158.000000, -10.000000)">
		<g id="Group-14" transform="translate(158.000000, 10.000000)">
			<polygon id="Fill-1" class="st0" points="49.5,2.2 35.6,6.6 35.6,32 39.3,32 39.3,9.6 49.5,6.5 60.4,9.6 60.4,31.9 64.1,31.9 
				64.1,6.6 			"/>
			<polygon id="Fill-2" class="st0" points="82.5,60.8 94,67.1 91.8,77.5 83.8,85.4 50.4,64.7 15.8,85.5 7.9,77.4 5.9,67 17.7,60.8 
				9.8,60.8 1.5,65.1 4.1,79.4 14.9,90.1 50.4,69.4 84.7,90.1 95.6,79.6 98.5,65.4 90.1,60.8 			"/>
			<g id="Group-13" transform="translate(0.000000, 0.089951)">
				<path id="Fill-3" class="st0" d="M22.3,57.2l-4.7-21.9h-7.3L5.1,57.2h6.1l0.5-2.8h4l0.4,2.8H22.3z M12.5,49.7l0.8-5.1
					c0.1-0.7,0.2-1.4,0.3-2.1c0.1-0.7,0.2-1.4,0.3-2.1H14c0.1,0.7,0.1,1.4,0.2,2.1c0.1,0.7,0.1,1.4,0.2,2.1l0.6,5.1H12.5z"/>
				<polygon id="Fill-5" class="st0" points="35.2,57.2 35.2,52 30.7,52 30.7,35.3 24.8,35.3 24.8,57.2 				"/>
				<polygon id="Fill-7" class="st0" points="44.1,57.2 44.1,48.8 48.3,48.8 48.3,43.6 44.1,43.6 44.1,40.4 48.6,40.4 48.6,35.3 
					38.1,35.3 38.1,57.2 				"/>
				<g id="Clip-10">
				</g>
				<polygon id="Fill-9" class="st0" points="52.6,57.2 58.6,57.2 58.6,35.3 52.6,35.3 				"/>
				<path id="Fill-11" class="st0" d="M62.6,57.2h5.7v-6.4c0-1-0.1-2.1-0.1-3.1c-0.1-1-0.2-2-0.3-3.1l0.1-0.1l4.4,12.6h5.7V35.3
					h-5.7v5.6c0,1.3,0.1,2.5,0.2,3.8s0.3,2.5,0.4,3.8l0-0.1l-4.8-13.2h-5.7v22H62.6z"/>
				<path id="Fill-12" class="st0" d="M89.7,44.5v4.6h2.2c0,0.4,0,0.9-0.2,1.4c-0.1,0.5-0.3,0.9-0.6,1.2c-0.3,0.3-0.7,0.5-1.2,0.5
					c-0.8,0-1.3-0.4-1.6-1.1c-0.3-0.7-0.5-1.4-0.6-2.3c-0.1-0.8-0.1-1.5-0.1-2.1c0-0.4,0-1,0-1.7s0.1-1.5,0.2-2.2
					c0.1-0.8,0.4-1.4,0.7-1.9c0.4-0.5,0.9-0.8,1.6-0.8c0.5,0,0.9,0.3,1.2,0.8c0.3,0.5,0.4,1,0.5,1.4l5.8-2.1
					c-0.7-1.6-1.6-2.9-2.9-3.9s-2.8-1.5-4.6-1.5c-2.1,0-3.8,0.6-5.1,1.8c-1.3,1.1-2.1,2.6-2.7,4.3c-0.5,1.7-0.8,3.5-0.8,5.4
					s0.2,3.7,0.8,5.4c0.5,1.7,1.4,3.1,2.7,4.2c1.3,1.1,3,1.6,5.1,1.7c1.7,0,3.1-0.4,4.2-1.1c1.1-0.7,1.9-1.7,2.4-2.9
					s0.9-2.5,1.1-3.9s0.3-2.8,0.3-4.2v-0.9h-8.4V44.5z"/>
			</g>
		</g>
	</g>
</g>
</svg>
