<?xml version="1.0" encoding="utf-8"?><svg id="Ebene_1" xmlns="http://www.w3.org/2000/svg" viewBox="0 0 207 46"><style>.st0{fill:#DF1E26;} .st1{fill:#010202;} .st2{fill-rule:evenodd;clip-rule:evenodd;fill:#010202;} .st3{fill-rule:evenodd;clip-rule:evenodd;fill:#12100C;} .st4{fill:#12100C;}</style><path class="st0" d="M112.3 45.9L126 0h-9.3L103 45.9"/><path class="st1" d="M8 42.4l.9-.8-1.7-.2M9.5 31.4h1.8l-.9-.8M32.9 33l-.8-.9-.4 1.9.5.2M26.7 40.2l.8.9-.5-2.2M80.4 32.4l-.1 1.4.7 1.2-.2-2.8"/><path class="st1" d="M0 45.8h21.6V41H7.5l13.7-16.4v-4.4H1.1v4.7h12.6L0 41.3"/><path class="st1" d="M49.7 27.2h-5.2l-3.4 12.6H41l-3.1-12.6h-5l-3.1 12.6-3.4-12.6H21l5.9 18.6h5.2l3.2-12.5h.1l3.3 12.5h5.2"/><path class="st2" d="M60.5 20.2h-5.1l-1.3 4.2h5.1M47.6 45.8h5.1l5.7-18.5h-5.1l-5.7 18.5z"/><path class="st1" d="M76 33.8c-.3-4.7-4.3-7-8.7-7-6 0-9.5 4.3-9.5 10 0 5.6 3.8 9.5 9.4 9.5 4.9 0 8.3-2.7 8.9-7.6h-4.9c-.3 2.3-1.7 3.8-4.1 3.8-3.2 0-4.2-3.2-4.2-5.8 0-2.7 1.1-6 4.3-6 2.1 0 3.4 1.1 3.8 3.2M78.1 45.8h5.1v-6.4l2-1.9 5.1 8.3h6.2L88.7 34l7-6.8h-6.1l-6.4 6.7V20.2h-5.1"/><path class="st3" d="M134 24.7h6.2c2.5 0 3.9 1.1 3.9 3.5 0 2.6-1.4 3.7-3.9 3.7H134m-5.6 14h5.6v-10h5.6c2.8 0 3.9 1.2 4.3 3.9.3 2 .2 4.5.9 6.1h5.6c-1-1.4-1-4.4-1.1-6.1-.2-2.6-1-5.3-3.7-6v-.1c2.8-1.1 4-3.4 4-6.4 0-3.9-2.9-7.1-7.5-7.1h-13.8v25.7zM157 36.6c0-3 1-5.9 4.5-5.9s4.5 3 4.5 5.9c0 2.9-1 5.9-4.5 5.9-3.4 0-4.5-2.9-4.5-5.9m-5 0c0 5.9 3.8 9.7 9.6 9.7s9.6-3.9 9.6-9.7c0-5.9-3.8-9.8-9.6-9.8-5.9.1-9.6 3.9-9.6 9.8M177.7 34.6c.1-1.4 1-3.9 4.2-3.9 2.5 0 3.6 1.4 4 3.9m5.1 3.2c.4-5.7-2.7-11-9-11-5.6 0-9.5 4.2-9.5 9.8 0 5.7 3.6 9.7 9.5 9.7 4.2 0 7.2-1.9 8.7-6.2h-4.5c-.3 1.1-2 2.4-4 2.4-2.8 0-4.4-1.5-4.5-4.7H191z"/><path class="st4" d="M193.3 20.3h5.1v25.6h-5.1zM201.9 20.3h5.1v25.6h-5.1z"/></svg>
